<?xml version="1.0" encoding="UTF-8" standalone="no"?>
<svg
   xmlns:dc="http://purl.org/dc/elements/1.1/"
   xmlns:cc="http://creativecommons.org/ns#"
   xmlns:rdf="http://www.w3.org/1999/02/22-rdf-syntax-ns#"
   xmlns:svg="http://www.w3.org/2000/svg"
   xmlns="http://www.w3.org/2000/svg"
   version="1.1"
   viewBox="0 0 265 108"
   data-name="Capa 1"
   id="Capa_1">
  <metadata
     id="metadata90">
    <rdf:RDF>
      <cc:Work
         rdf:about="">
        <dc:format>image/svg+xml</dc:format>
        <dc:type
           rdf:resource="http://purl.org/dc/dcmitype/StillImage" />
        <dc:title>BCN3D PrusaSlicer</dc:title>
      </cc:Work>
    </rdf:RDF>
  </metadata>
  <defs
     id="defs88" />
  <title
     id="title51">BCN3D PrusaSlicer</title>
  <path
     id="path53"
     d="M164,46.2c-3.55,0-6-3-6-6.77v-.07c0-3.69,2.5-6.69,6-6.69a6.78,6.78,0,0,1,5.54,3l5.28-4.09a12.4,12.4,0,0,0-10.75-5.28A13,13,0,0,0,150.7,39.43v.08A13.33,13.33,0,0,0,175,46.89l-5.28-3.76C168.18,45,166.62,46.2,164,46.2Z" />
  <polygon
     id="polygon55"
     points="198.54 40.16 188.12 26.77 181.57 26.77 181.57 52.1 188.51 52.1 188.52 38.2 199.34 52.1 205.49 52.1 205.49 26.76 198.54 26.77 198.54 40.16" />
  <path
     id="path57"
     d="M139.73,38.86a5.87,5.87,0,0,0,3.92-5.65v-.07A5.56,5.56,0,0,0,142,29.05c-1.49-1.49-3.73-2.28-6.92-2.28h-13V52.1h13.06c6.05,0,9.6-2.64,9.6-7v-.07C144.77,41.61,142.81,39.87,139.73,38.86ZM129,32.41h4.56c2.1,0,3.18.8,3.18,2.17v.08c0,1.48-1.19,2.21-3.33,2.21H129Zm8.79,11.73c0,1.48-1.23,2.32-3.36,2.32H129V41.79h5.35c2.36,0,3.44.9,3.44,2.28Z" />
  <path
     id="path59"
     d="M226,37,232,31.79v-5H213.7v5.69h9.7l-5.83,5.25,1,3.65h3c2.64,0,4.12,1,4.12,2.61V44c0,1.56-1.26,2.57-3.25,2.57a8.29,8.29,0,0,1-6.05-2.9L212,48.12a13.81,13.81,0,0,0,10.79,4.49c5.65,0,9.77-3.3,9.77-8.44V44.1C232.52,39.79,229.59,37.77,226,37Z" />
  <path
     id="path61"
     d="M249.39,26.76h-9.78V52.1h9.63c9.12,0,14.44-5.43,14.44-12.74v-.07C263.68,32,258.44,26.76,249.39,26.76Zm7.09,12.71c0,4.09-2.79,6.41-7,6.41h-2.86V33h2.86c4.2,0,7,2.35,7,6.41Z" />
  <polygon
     id="polygon73"
     points="9.57 9.02 32.65 9.02 32.65 0.91 1.47 0.91 1.47 32.11 9.57 32.11 9.57 9.02" />
  <polygon
     id="polygon75"
     points="76.5 0.91 76.5 9.02 99.54 9.02 99.54 32.18 107.64 32.18 107.64 0.91 76.5 0.91" />
  <polygon
     id="polygon77"
     points="9.57 75.98 1.47 75.98 1.47 107.09 32.76 107.09 32.76 98.98 9.57 98.98 9.57 75.98" />
  <polygon
     id="polygon79"
     points="99.54 98.98 76.53 98.98 76.53 107.09 107.64 107.09 107.64 75.98 99.54 75.98 99.54 98.98" />
  <path
     id="path81"
     d="M54.55,35.81A18.2,18.2,0,1,0,72.75,54,18.21,18.21,0,0,0,54.55,35.81Zm0,24.39A6.2,6.2,0,1,1,60.76,54,6.21,6.21,0,0,1,54.55,60.2Z" />
  <path
     id="path83"
     d="M81,76l2.65-3.64,7.82.22L95.31,60.7l-6.45-4.43v-4.5l6.46-4.42L91.46,35.46l-7.82.21L81,32l2.62-7.37-10.1-7.35-6.2,4.77L63,20.68l-2.21-7.5H48.33l-2.22,7.5-4.28,1.39-6.2-4.77L25.52,24.63,28.14,32l-2.65,3.64-7.82-.22L13.8,47.3l6.45,4.43v4.5l-6.46,4.42,3.86,11.89,7.82-.21L28.11,76l-2.62,7.37,10.1,7.35,6.2-4.77,4.29,1.4,2.21,7.5H60.78L63,87.33l4.29-1.39,6.2,4.77,10.11-7.34ZM54.55,78.44A24.44,24.44,0,1,1,79,54,24.46,24.46,0,0,1,54.55,78.44Z" />
  <g
     id="layer1">
    <rect
       y="59.416283"
       x="119.81429"
       height="16.622795"
       width="142.93121"
       id="rect921"
       style="fill:#000000;fill-opacity:1;stroke:#000000;stroke-width:1.00604;stroke-opacity:1" />
  </g>
  <g
     id="layer2">
    <text
       id="text94"
       y="74.609634"
       x="121.28131"
       style="font-style:normal;font-variant:normal;font-weight:bold;font-stretch:normal;font-size:19.3283px;line-height:1.25;font-family:Arial;-inkscape-font-specification:'Arial, Bold';font-variant-ligatures:normal;font-variant-caps:normal;font-variant-numeric:normal;font-variant-east-asian:normal;letter-spacing:0px;word-spacing:0px;fill:#ffffff;fill-opacity:1;stroke:none;stroke-width:0.483206"
       xml:space="preserve"><tspan
         style="font-style:normal;font-variant:normal;font-weight:bold;font-stretch:normal;font-size:19.3283px;font-family:Arial;-inkscape-font-specification:'Arial, Bold';font-variant-ligatures:normal;font-variant-caps:normal;font-variant-numeric:normal;font-variant-east-asian:normal;fill:#ffffff;fill-opacity:1;stroke-width:0.483206"
         y="74.609634"
         x="121.28131"
         id="tspan92">PRUSASLICER</tspan></text>
  </g>
</svg>
